<?xml version="1.0" standalone="no"?>
<svg xmlns="http://www.w3.org/2000/svg" width="500" height="500"><defs><clipPath id="clip-path-dot-color"><path d="M 28 136v 12h 6a 6 6, 0, 0, 0, 0 -12" transform="rotate(180,34,142)"/><path d="M 28 160v 12h 6a 6 6, 0, 0, 0, 0 -12" transform="rotate(-90,34,166)"/><path d="M 28 172v 12h 6a 6 6, 0, 0, 0, 0 -12" transform="rotate(90,34,178)"/><path d="M 28 196v 12h 6a 6 6, 0, 0, 0, 0 -12" transform="rotate(-90,34,202)"/><path d="M 28 208v 12h 6a 6 6, 0, 0, 0, 0 -12" transform="rotate(90,34,214)"/><path d="M 28 232v 12h 6a 6 6, 0, 0, 0, 0 -12" transform="rotate(-90,34,238)"/><rect x="28" y="244" width="12" height="12" transform="rotate(0,34,250)"/><path d="M 28 256v 12h 6a 6 6, 0, 0, 0, 0 -12" transform="rotate(90,34,262)"/><path d="M 28 280v 12h 6a 6 6, 0, 0, 0, 0 -12" transform="rotate(180,34,286)"/><path d="M 28 304v 12h 6a 6 6, 0, 0, 0, 0 -12" transform="rotate(-90,34,310)"/><rect x="28" y="316" width="12" height="12" transform="rotate(0,34,322)"/><rect x="28" y="328" width="12" height="12" transform="rotate(0,34,334)"/><path d="M 28 340v 12h 12v -6a 6 6, 0, 0, 0, -6 -6" transform="rotate(180,34,346)"/><path d="M 28 364v 12h 6a 6 6, 0, 0, 0, 0 -12" transform="rotate(180,34,370)"/><path d="M 40 124v 12h 6a 6 6, 0, 0, 0, 0 -12" transform="rotate(-90,46,130)"/><path d="M 40 136v 12h 12v -6a 6 6, 0, 0, 0, -6 -6" transform="rotate(90,46,142)"/><path d="M 40 268v 12h 12v -6a 6 6, 0, 0, 0, -6 -6" transform="rotate(-90,46,274)"/><rect x="40" y="280" width="12" height="12" transform="rotate(0,46,286)"/><rect x="40" y="328" width="12" height="12" transform="rotate(0,46,334)"/><rect x="40" y="340" width="12" height="12" transform="rotate(0,46,346)"/><path d="M 40 364v 12h 6a 6 6, 0, 0, 0, 0 -12" transform="rotate(0,46,370)"/><path d="M 52 172v 12h 6a 6 6, 0, 0, 0, 0 -12" transform="rotate(180,58,178)"/><path d="M 52 208v 12h 6a 6 6, 0, 0, 0, 0 -12" transform="rotate(-90,58,214)"/><path d="M 52 220v 12h 6a 6 6, 0, 0, 0, 0 -12" transform="rotate(90,58,226)"/><path d="M 52 256v 12h 12v -6a 6 6, 0, 0, 0, -6 -6" transform="rotate(-90,58,262)"/><rect x="52" y="268" width="12" height="12" transform="rotate(0,58,274)"/><rect x="52" y="280" width="12" height="12" transform="rotate(0,58,286)"/><path d="M 52 316v 12h 6a 6 6, 0, 0, 0, 0 -12" transform="rotate(-90,58,322)"/><rect x="52" y="328" width="12" height="12" transform="rotate(0,58,334)"/><rect x="52" y="340" width="12" height="12" transform="rotate(0,58,346)"/><path d="M 52 352v 12h 12v -6a 6 6, 0, 0, 0, -6 -6" transform="rotate(180,58,358)"/><path d="M 64 124v 12h 12v -6a 6 6, 0, 0, 0, -6 -6" transform="rotate(-90,70,130)"/><rect x="64" y="136" width="12" height="12" transform="rotate(0,70,142)"/><rect x="64" y="148" width="12" height="12" transform="rotate(0,70,154)"/><rect x="64" y="160" width="12" height="12" transform="rotate(0,70,166)"/><rect x="64" y="172" width="12" height="12" transform="rotate(0,70,178)"/><rect x="64" y="184" width="12" height="12" transform="rotate(0,70,190)"/><path d="M 64 196v 12h 6a 6 6, 0, 0, 0, 0 -12" transform="rotate(90,70,202)"/><path d="M 64 244v 12h 12v -6a 6 6, 0, 0, 0, -6 -6" transform="rotate(-90,70,250)"/><path d="M 64 256v 12h 12v -6a 6 6, 0, 0, 0, -6 -6" transform="rotate(90,70,262)"/><rect x="64" y="280" width="12" height="12" transform="rotate(0,70,286)"/><path d="M 64 292v 12h 6a 6 6, 0, 0, 0, 0 -12" transform="rotate(90,70,298)"/><path d="M 64 328v 12h 6a 6 6, 0, 0, 0, 0 -12" transform="rotate(0,70,334)"/><path d="M 64 352v 12h 12v -6a 6 6, 0, 0, 0, -6 -6" transform="rotate(0,70,358)"/><path d="M 64 364v 12h 6a 6 6, 0, 0, 0, 0 -12" transform="rotate(90,70,370)"/><path d="M 76 124v 12h 6a 6 6, 0, 0, 0, 0 -12" transform="rotate(0,82,130)"/><path d="M 76 148v 12h 6a 6 6, 0, 0, 0, 0 -12" transform="rotate(0,82,154)"/><path d="M 76 208v 12h 6a 6 6, 0, 0, 0, 0 -12" transform="rotate(-90,82,214)"/><rect x="76" y="220" width="12" height="12" transform="rotate(0,82,226)"/><rect x="76" y="232" width="12" height="12" transform="rotate(0,82,238)"/><path d="M 76 244v 12h 12v -6a 6 6, 0, 0, 0, -6 -6" transform="rotate(90,82,250)"/><path d="M 76 268v 12h 12v -6a 6 6, 0, 0, 0, -6 -6" transform="rotate(-90,82,274)"/><path d="M 76 280v 12h 12v -6a 6 6, 0, 0, 0, -6 -6" transform="rotate(90,82,286)"/><path d="M 76 316v 12h 6a 6 6, 0, 0, 0, 0 -12" transform="rotate(180,82,322)"/><path d="M 88 160v 12h 6a 6 6, 0, 0, 0, 0 -12" transform="rotate(-90,94,166)"/><path d="M 88 172v 12h 12v -6a 6 6, 0, 0, 0, -6 -6" transform="rotate(180,94,178)"/><path d="M 88 256v 12h 6a 6 6, 0, 0, 0, 0 -12" transform="rotate(-90,94,262)"/><rect x="88" y="268" width="12" height="12" transform="rotate(0,94,274)"/><path d="M 88 292v 12h 12v -6a 6 6, 0, 0, 0, -6 -6" transform="rotate(-90,94,298)"/><rect x="88" y="304" width="12" height="12" transform="rotate(0,94,310)"/><rect x="88" y="316" width="12" height="12" transform="rotate(0,94,322)"/><path d="M 100 124v 12h 6a 6 6, 0, 0, 0, 0 -12" transform="rotate(180,106,130)"/><circle cx="106" cy="154" r="6" transform="rotate(0,106,154)"/><rect x="100" y="172" width="12" height="12" transform="rotate(0,106,178)"/><circle cx="106" cy="202" r="6" transform="rotate(0,106,202)"/><circle cx="106" cy="226" r="6" transform="rotate(0,106,226)"/><path d="M 100 244v 12h 6a 6 6, 0, 0, 0, 0 -12" transform="rotate(180,106,250)"/><rect x="100" y="268" width="12" height="12" transform="rotate(0,106,274)"/><rect x="100" y="292" width="12" height="12" transform="rotate(0,106,298)"/><path d="M 100 316v 12h 6a 6 6, 0, 0, 0, 0 -12" transform="rotate(0,106,322)"/><circle cx="106" cy="346" r="6" transform="rotate(0,106,346)"/><path d="M 100 364v 12h 6a 6 6, 0, 0, 0, 0 -12" transform="rotate(180,106,370)"/><rect x="112" y="124" width="12" height="12" transform="rotate(0,118,130)"/><path d="M 112 136v 12h 12v -6a 6 6, 0, 0, 0, -6 -6" transform="rotate(180,118,142)"/><rect x="112" y="172" width="12" height="12" transform="rotate(0,118,178)"/><path d="M 112 184v 12h 12v -6a 6 6, 0, 0, 0, -6 -6" transform="rotate(180,118,190)"/><rect x="112" y="244" width="12" height="12" transform="rotate(0,118,250)"/><rect x="112" y="268" width="12" height="12" transform="rotate(0,118,274)"/><path d="M 112 292v 12h 6a 6 6, 0, 0, 0, 0 -12" transform="rotate(0,118,298)"/><path d="M 112 328v 12h 6a 6 6, 0, 0, 0, 0 -12" transform="rotate(180,118,334)"/><path d="M 112 352v 12h 6a 6 6, 0, 0, 0, 0 -12" transform="rotate(-90,118,358)"/><rect x="112" y="364" width="12" height="12" transform="rotate(0,118,370)"/><circle cx="130" cy="46" r="6" transform="rotate(0,130,46)"/><path d="M 124 64v 12h 6a 6 6, 0, 0, 0, 0 -12" transform="rotate(-90,130,70)"/><rect x="124" y="76" width="12" height="12" transform="rotate(0,130,82)"/><rect x="124" y="88" width="12" height="12" transform="rotate(0,130,94)"/><path d="M 124 100v 12h 6a 6 6, 0, 0, 0, 0 -12" transform="rotate(90,130,106)"/><path d="M 124 124v 12h 12v -6a 6 6, 0, 0, 0, -6 -6" transform="rotate(0,130,130)"/><rect x="124" y="136" width="12" height="12" transform="rotate(0,130,142)"/><rect x="124" y="172" width="12" height="12" transform="rotate(0,130,178)"/><rect x="124" y="184" width="12" height="12" transform="rotate(0,130,190)"/><path d="M 124 208v 12h 6a 6 6, 0, 0, 0, 0 -12" transform="rotate(180,130,214)"/><rect x="124" y="244" width="12" height="12" transform="rotate(0,130,250)"/><rect x="124" y="256" width="12" height="12" transform="rotate(0,130,262)"/><path d="M 124 268v 12h 12v -6a 6 6, 0, 0, 0, -6 -6" transform="rotate(90,130,274)"/><path d="M 124 316v 12h 6a 6 6, 0, 0, 0, 0 -12" transform="rotate(-90,130,322)"/><rect x="124" y="328" width="12" height="12" transform="rotate(0,130,334)"/><path d="M 124 364v 12h 12v -6a 6 6, 0, 0, 0, -6 -6" transform="rotate(0,130,370)"/><rect x="124" y="376" width="12" height="12" transform="rotate(0,130,382)"/><path d="M 124 388v 12h 6a 6 6, 0, 0, 0, 0 -12" transform="rotate(90,130,394)"/><path d="M 124 412v 12h 12v -6a 6 6, 0, 0, 0, -6 -6" transform="rotate(-90,130,418)"/><path d="M 124 424v 12h 12v -6a 6 6, 0, 0, 0, -6 -6" transform="rotate(180,130,430)"/><path d="M 124 448v 12h 6a 6 6, 0, 0, 0, 0 -12" transform="rotate(180,130,454)"/><circle cx="142" cy="58" r="6" transform="rotate(0,142,58)"/><path d="M 136 136v 12h 12v -6a 6 6, 0, 0, 0, -6 -6" transform="rotate(0,142,142)"/><rect x="136" y="148" width="12" height="12" transform="rotate(0,142,154)"/><rect x="136" y="160" width="12" height="12" transform="rotate(0,142,166)"/><rect x="136" y="172" width="12" height="12" transform="rotate(0,142,178)"/><rect x="136" y="184" width="12" height="12" transform="rotate(0,142,190)"/><rect x="136" y="196" width="12" height="12" transform="rotate(0,142,202)"/><rect x="136" y="208" width="12" height="12" transform="rotate(0,142,214)"/><path d="M 136 220v 12h 6a 6 6, 0, 0, 0, 0 -12" transform="rotate(90,142,226)"/><path d="M 136 244v 12h 12v -6a 6 6, 0, 0, 0, -6 -6" transform="rotate(0,142,250)"/><path d="M 136 256v 12h 12v -6a 6 6, 0, 0, 0, -6 -6" transform="rotate(90,142,262)"/><path d="M 136 304v 12h 6a 6 6, 0, 0, 0, 0 -12" transform="rotate(180,142,310)"/><rect x="136" y="328" width="12" height="12" transform="rotate(0,142,334)"/><rect x="136" y="376" width="12" height="12" transform="rotate(0,142,382)"/><rect x="136" y="412" width="12" height="12" transform="rotate(0,142,418)"/><rect x="136" y="424" width="12" height="12" transform="rotate(0,142,430)"/><rect x="136" y="436" width="12" height="12" transform="rotate(0,142,442)"/><path d="M 136 448v 12h 12v -6a 6 6, 0, 0, 0, -6 -6" transform="rotate(90,142,454)"/><path d="M 148 28v 12h 6a 6 6, 0, 0, 0, 0 -12" transform="rotate(-90,154,34)"/><path d="M 148 40v 12h 6a 6 6, 0, 0, 0, 0 -12" transform="rotate(90,154,46)"/><path d="M 148 64v 12h 12v -6a 6 6, 0, 0, 0, -6 -6" transform="rotate(-90,154,70)"/><rect x="148" y="76" width="12" height="12" transform="rotate(0,154,82)"/><rect x="148" y="88" width="12" height="12" transform="rotate(0,154,94)"/><rect x="148" y="100" width="12" height="12" transform="rotate(0,154,106)"/><rect x="148" y="112" width="12" height="12" transform="rotate(0,154,118)"/><path d="M 148 124v 12h 6a 6 6, 0, 0, 0, 0 -12" transform="rotate(90,154,130)"/><path d="M 148 172v 12h 6a 6 6, 0, 0, 0, 0 -12" transform="rotate(0,154,178)"/><path d="M 148 208v 12h 6a 6 6, 0, 0, 0, 0 -12" transform="rotate(0,154,214)"/><circle cx="154" cy="238" r="6" transform="rotate(0,154,238)"/><path d="M 148 268v 12h 6a 6 6, 0, 0, 0, 0 -12" transform="rotate(180,154,274)"/><path d="M 148 292v 12h 12v -6a 6 6, 0, 0, 0, -6 -6" transform="rotate(-90,154,298)"/><path d="M 148 304v 12h 12v -6a 6 6, 0, 0, 0, -6 -6" transform="rotate(90,154,310)"/><path d="M 148 328v 12h 6a 6 6, 0, 0, 0, 0 -12" transform="rotate(0,154,334)"/><rect x="148" y="376" width="12" height="12" transform="rotate(0,154,382)"/><rect x="148" y="388" width="12" height="12" transform="rotate(0,154,394)"/><rect x="148" y="400" width="12" height="12" transform="rotate(0,154,406)"/><rect x="148" y="412" width="12" height="12" transform="rotate(0,154,418)"/><rect x="148" y="424" width="12" height="12" transform="rotate(0,154,430)"/><rect x="148" y="436" width="12" height="12" transform="rotate(0,154,442)"/><circle cx="154" cy="466" r="6" transform="rotate(0,154,466)"/><path d="M 160 52v 12h 12v -6a 6 6, 0, 0, 0, -6 -6" transform="rotate(-90,166,58)"/><rect x="160" y="64" width="12" height="12" transform="rotate(0,166,70)"/><path d="M 160 76v 12h 12v -6a 6 6, 0, 0, 0, -6 -6" transform="rotate(90,166,82)"/><circle cx="166" cy="154" r="6" transform="rotate(0,166,154)"/><path d="M 160 244v 12h 6a 6 6, 0, 0, 0, 0 -12" transform="rotate(180,166,250)"/><path d="M 160 268v 12h 6a 6 6, 0, 0, 0, 0 -12" transform="rotate(0,166,274)"/><rect x="160" y="292" width="12" height="12" transform="rotate(0,166,298)"/><path d="M 160 340v 12h 6a 6 6, 0, 0, 0, 0 -12" transform="rotate(-90,166,346)"/><path d="M 160 352v 12h 6a 6 6, 0, 0, 0, 0 -12" transform="rotate(90,166,358)"/><path d="M 160 376v 12h 12v -6a 6 6, 0, 0, 0, -6 -6" transform="rotate(0,166,382)"/><rect x="160" y="388" width="12" height="12" transform="rotate(0,166,394)"/><path d="M 160 412v 12h 6a 6 6, 0, 0, 0, 0 -12" transform="rotate(0,166,418)"/><path d="M 160 436v 12h 6a 6 6, 0, 0, 0, 0 -12" transform="rotate(0,166,442)"/><path d="M 172 40v 12h 6a 6 6, 0, 0, 0, 0 -12" transform="rotate(-90,178,46)"/><rect x="172" y="52" width="12" height="12" transform="rotate(0,178,58)"/><rect x="172" y="64" width="12" height="12" transform="rotate(0,178,70)"/><circle cx="178" cy="106" r="6" transform="rotate(0,178,106)"/><path d="M 172 124v 12h 6a 6 6, 0, 0, 0, 0 -12" transform="rotate(180,178,130)"/><path d="M 172 160v 12h 12v -6a 6 6, 0, 0, 0, -6 -6" transform="rotate(-90,178,166)"/><path d="M 172 172v 12h 6a 6 6, 0, 0, 0, 0 -12" transform="rotate(90,178,178)"/><path d="M 172 208v 12h 12v -6a 6 6, 0, 0, 0, -6 -6" transform="rotate(-90,178,214)"/><rect x="172" y="220" width="12" height="12" transform="rotate(0,178,226)"/><rect x="172" y="232" width="12" height="12" transform="rotate(0,178,238)"/><path d="M 172 244v 12h 12v -6a 6 6, 0, 0, 0, -6 -6" transform="rotate(90,178,250)"/><rect x="172" y="292" width="12" height="12" transform="rotate(0,178,298)"/><path d="M 172 364v 12h 6a 6 6, 0, 0, 0, 0 -12" transform="rotate(180,178,370)"/><path d="M 172 388v 12h 12v -6a 6 6, 0, 0, 0, -6 -6" transform="rotate(0,178,394)"/><path d="M 172 400v 12h 6a 6 6, 0, 0, 0, 0 -12" transform="rotate(90,178,406)"/><circle cx="190" cy="34" r="6" transform="rotate(0,190,34)"/><path d="M 184 52v 12h 12v -6a 6 6, 0, 0, 0, -6 -6" transform="rotate(0,190,58)"/><rect x="184" y="64" width="12" height="12" transform="rotate(0,190,70)"/><path d="M 184 76v 12h 6a 6 6, 0, 0, 0, 0 -12" transform="rotate(90,190,82)"/><path d="M 184 124v 12h 6a 6 6, 0, 0, 0, 0 -12" transform="rotate(0,190,130)"/><path d="M 184 148v 12h 12v -6a 6 6, 0, 0, 0, -6 -6" transform="rotate(-90,190,154)"/><path d="M 184 160v 12h 12v -6a 6 6, 0, 0, 0, -6 -6" transform="rotate(90,190,166)"/><circle cx="190" cy="190" r="6" transform="rotate(0,190,190)"/><rect x="184" y="208" width="12" height="12" transform="rotate(0,190,214)"/><rect x="184" y="220" width="12" height="12" transform="rotate(0,190,226)"/><path d="M 184 232v 12h 12v -6a 6 6, 0, 0, 0, -6 -6" transform="rotate(90,190,238)"/><path d="M 184 268v 12h 12v -6a 6 6, 0, 0, 0, -6 -6" transform="rotate(-90,190,274)"/><rect x="184" y="280" width="12" height="12" transform="rotate(0,190,286)"/><rect x="184" y="292" width="12" height="12" transform="rotate(0,190,298)"/><path d="M 184 304v 12h 6a 6 6, 0, 0, 0, 0 -12" transform="rotate(90,190,310)"/><path d="M 184 340v 12h 12v -6a 6 6, 0, 0, 0, -6 -6" transform="rotate(-90,190,346)"/><rect x="184" y="352" width="12" height="12" transform="rotate(0,190,358)"/><rect x="184" y="364" width="12" height="12" transform="rotate(0,190,370)"/><path d="M 184 376v 12h 12v -6a 6 6, 0, 0, 0, -6 -6" transform="rotate(180,190,382)"/><circle cx="190" cy="418" r="6" transform="rotate(0,190,418)"/><path d="M 184 436v 12h 12v -6a 6 6, 0, 0, 0, -6 -6" transform="rotate(-90,190,442)"/><path d="M 184 448v 12h 12v -6a 6 6, 0, 0, 0, -6 -6" transform="rotate(180,190,454)"/><path d="M 196 88v 12h 12v -6a 6 6, 0, 0, 0, -6 -6" transform="rotate(-90,202,94)"/><rect x="196" y="100" width="12" height="12" transform="rotate(0,202,106)"/><path d="M 196 112v 12h 12v -6a 6 6, 0, 0, 0, -6 -6" transform="rotate(180,202,118)"/><path d="M 196 136v 12h 6a 6 6, 0, 0, 0, 0 -12" transform="rotate(-90,202,142)"/><path d="M 196 148v 12h 12v -6a 6 6, 0, 0, 0, -6 -6" transform="rotate(90,202,154)"/><path d="M 196 172v 12h 6a 6 6, 0, 0, 0, 0 -12" transform="rotate(180,202,178)"/><path d="M 196 196v 12h 12v -6a 6 6, 0, 0, 0, -6 -6" transform="rotate(-90,202,202)"/><rect x="196" y="208" width="12" height="12" transform="rotate(0,202,214)"/><circle cx="202" cy="250" r="6" transform="rotate(0,202,250)"/><path d="M 196 268v 12h 6a 6 6, 0, 0, 0, 0 -12" transform="rotate(0,202,274)"/><path d="M 196 316v 12h 6a 6 6, 0, 0, 0, 0 -12" transform="rotate(180,202,322)"/><path d="M 196 340v 12h 12v -6a 6 6, 0, 0, 0, -6 -6" transform="rotate(0,202,346)"/><rect x="196" y="352" width="12" height="12" transform="rotate(0,202,358)"/><rect x="196" y="364" width="12" height="12" transform="rotate(0,202,370)"/><path d="M 196 376v 12h 12v -6a 6 6, 0, 0, 0, -6 -6" transform="rotate(90,202,382)"/><path d="M 196 400v 12h 6a 6 6, 0, 0, 0, 0 -12" transform="rotate(180,202,406)"/><path d="M 196 424v 12h 12v -6a 6 6, 0, 0, 0, -6 -6" transform="rotate(-90,202,430)"/><rect x="196" y="436" width="12" height="12" transform="rotate(0,202,442)"/><rect x="196" y="448" width="12" height="12" transform="rotate(0,202,454)"/><path d="M 196 460v 12h 12v -6a 6 6, 0, 0, 0, -6 -6" transform="rotate(180,202,466)"/><path d="M 208 52v 12h 6a 6 6, 0, 0, 0, 0 -12" transform="rotate(-90,214,58)"/><rect x="208" y="64" width="12" height="12" transform="rotate(0,214,70)"/><rect x="208" y="76" width="12" height="12" transform="rotate(0,214,82)"/><rect x="208" y="88" width="12" height="12" transform="rotate(0,214,94)"/><path d="M 208 112v 12h 6a 6 6, 0, 0, 0, 0 -12" transform="rotate(0,214,118)"/><path d="M 208 160v 12h 6a 6 6, 0, 0, 0, 0 -12" transform="rotate(-90,214,166)"/><rect x="208" y="172" width="12" height="12" transform="rotate(0,214,178)"/><rect x="208" y="184" width="12" height="12" transform="rotate(0,214,190)"/><rect x="208" y="196" width="12" height="12" transform="rotate(0,214,202)"/><rect x="208" y="208" width="12" height="12" transform="rotate(0,214,214)"/><path d="M 208 256v 12h 6a 6 6, 0, 0, 0, 0 -12" transform="rotate(180,214,262)"/><path d="M 208 280v 12h 12v -6a 6 6, 0, 0, 0, -6 -6" transform="rotate(-90,214,286)"/><path d="M 208 292v 12h 12v -6a 6 6, 0, 0, 0, -6 -6" transform="rotate(180,214,298)"/><rect x="208" y="316" width="12" height="12" transform="rotate(0,214,322)"/><path d="M 208 400v 12h 12v -6a 6 6, 0, 0, 0, -6 -6" transform="rotate(0,214,406)"/><rect x="208" y="412" width="12" height="12" transform="rotate(0,214,418)"/><rect x="208" y="424" width="12" height="12" transform="rotate(0,214,430)"/><rect x="208" y="436" width="12" height="12" transform="rotate(0,214,442)"/><rect x="208" y="460" width="12" height="12" transform="rotate(0,214,466)"/><circle cx="226" cy="46" r="6" transform="rotate(0,226,46)"/><rect x="220" y="76" width="12" height="12" transform="rotate(0,226,82)"/><rect x="220" y="88" width="12" height="12" transform="rotate(0,226,94)"/><path d="M 220 100v 12h 6a 6 6, 0, 0, 0, 0 -12" transform="rotate(90,226,106)"/><path d="M 220 124v 12h 6a 6 6, 0, 0, 0, 0 -12" transform="rotate(-90,226,130)"/><rect x="220" y="136" width="12" height="12" transform="rotate(0,226,142)"/><path d="M 220 148v 12h 12v -6a 6 6, 0, 0, 0, -6 -6" transform="rotate(180,226,154)"/><path d="M 220 184v 12h 12v -6a 6 6, 0, 0, 0, -6 -6" transform="rotate(0,226,190)"/><rect x="220" y="196" width="12" height="12" transform="rotate(0,226,202)"/><rect x="220" y="208" width="12" height="12" transform="rotate(0,226,214)"/><rect x="220" y="220" width="12" height="12" transform="rotate(0,226,226)"/><rect x="220" y="232" width="12" height="12" transform="rotate(0,226,238)"/><rect x="220" y="244" width="12" height="12" transform="rotate(0,226,250)"/><rect x="220" y="256" width="12" height="12" transform="rotate(0,226,262)"/><rect x="220" y="268" width="12" height="12" transform="rotate(0,226,274)"/><rect x="220" y="280" width="12" height="12" transform="rotate(0,226,286)"/><rect x="220" y="292" width="12" height="12" transform="rotate(0,226,298)"/><rect x="220" y="304" width="12" height="12" transform="rotate(0,226,310)"/><rect x="220" y="316" width="12" height="12" transform="rotate(0,226,322)"/><path d="M 220 328v 12h 6a 6 6, 0, 0, 0, 0 -12" transform="rotate(90,226,334)"/><path d="M 220 352v 12h 6a 6 6, 0, 0, 0, 0 -12" transform="rotate(180,226,358)"/><circle cx="226" cy="394" r="6" transform="rotate(0,226,394)"/><rect x="220" y="436" width="12" height="12" transform="rotate(0,226,442)"/><rect x="220" y="448" width="12" height="12" transform="rotate(0,226,454)"/><path d="M 220 460v 12h 12v -6a 6 6, 0, 0, 0, -6 -6" transform="rotate(90,226,466)"/><path d="M 232 28v 12h 6a 6 6, 0, 0, 0, 0 -12" transform="rotate(180,238,34)"/><path d="M 232 52v 12h 6a 6 6, 0, 0, 0, 0 -12" transform="rotate(-90,238,58)"/><rect x="232" y="64" width="12" height="12" transform="rotate(0,238,70)"/><path d="M 232 76v 12h 12v -6a 6 6, 0, 0, 0, -6 -6" transform="rotate(90,238,82)"/><path d="M 232 148v 12h 12v -6a 6 6, 0, 0, 0, -6 -6" transform="rotate(0,238,154)"/><path d="M 232 160v 12h 12v -6a 6 6, 0, 0, 0, -6 -6" transform="rotate(180,238,166)"/><path d="M 232 232v 12h 12v -6a 6 6, 0, 0, 0, -6 -6" transform="rotate(0,238,238)"/><rect x="232" y="244" width="12" height="12" transform="rotate(0,238,250)"/><rect x="232" y="256" width="12" height="12" transform="rotate(0,238,262)"/><rect x="232" y="268" width="12" height="12" transform="rotate(0,238,274)"/><rect x="232" y="280" width="12" height="12" transform="rotate(0,238,286)"/><rect x="232" y="292" width="12" height="12" transform="rotate(0,238,298)"/><path d="M 232 304v 12h 12v -6a 6 6, 0, 0, 0, -6 -6" transform="rotate(90,238,310)"/><path d="M 232 340v 12h 12v -6a 6 6, 0, 0, 0, -6 -6" transform="rotate(-90,238,346)"/><rect x="232" y="352" width="12" height="12" transform="rotate(0,238,358)"/><circle cx="238" cy="382" r="6" transform="rotate(0,238,382)"/><rect x="232" y="436" width="12" height="12" transform="rotate(0,238,442)"/><path d="M 232 448v 12h 12v -6a 6 6, 0, 0, 0, -6 -6" transform="rotate(90,238,454)"/><rect x="244" y="28" width="12" height="12" transform="rotate(0,250,34)"/><path d="M 244 100v 12h 6a 6 6, 0, 0, 0, 0 -12" transform="rotate(-90,250,106)"/><rect x="244" y="112" width="12" height="12" transform="rotate(0,250,118)"/><path d="M 244 124v 12h 12v -6a 6 6, 0, 0, 0, -6 -6" transform="rotate(180,250,130)"/><path d="M 244 160v 12h 6a 6 6, 0, 0, 0, 0 -12" transform="rotate(0,250,166)"/><rect x="244" y="256" width="12" height="12" transform="rotate(0,250,262)"/><rect x="244" y="268" width="12" height="12" transform="rotate(0,250,274)"/><path d="M 244 316v 12h 6a 6 6, 0, 0, 0, 0 -12" transform="rotate(-90,250,322)"/><rect x="244" y="328" width="12" height="12" transform="rotate(0,250,334)"/><rect x="244" y="340" width="12" height="12" transform="rotate(0,250,346)"/><rect x="244" y="352" width="12" height="12" transform="rotate(0,250,358)"/><path d="M 244 388v 12h 6a 6 6, 0, 0, 0, 0 -12" transform="rotate(180,250,394)"/><path d="M 244 412v 12h 12v -6a 6 6, 0, 0, 0, -6 -6" transform="rotate(-90,250,418)"/><rect x="244" y="424" width="12" height="12" transform="rotate(0,250,430)"/><path d="M 244 436v 12h 12v -6a 6 6, 0, 0, 0, -6 -6" transform="rotate(90,250,442)"/><circle cx="250" cy="466" r="6" transform="rotate(0,250,466)"/><path d="M 256 28v 12h 6a 6 6, 0, 0, 0, 0 -12" transform="rotate(0,262,34)"/><path d="M 256 124v 12h 6a 6 6, 0, 0, 0, 0 -12" transform="rotate(0,262,130)"/><path d="M 256 184v 12h 6a 6 6, 0, 0, 0, 0 -12" transform="rotate(-90,262,190)"/><path d="M 256 196v 12h 6a 6 6, 0, 0, 0, 0 -12" transform="rotate(90,262,202)"/><path d="M 256 220v 12h 6a 6 6, 0, 0, 0, 0 -12" transform="rotate(-90,262,226)"/><rect x="256" y="232" width="12" height="12" transform="rotate(0,262,238)"/><rect x="256" y="244" width="12" height="12" transform="rotate(0,262,250)"/><rect x="256" y="256" width="12" height="12" transform="rotate(0,262,262)"/><rect x="256" y="268" width="12" height="12" transform="rotate(0,262,274)"/><path d="M 256 304v 12h 6a 6 6, 0, 0, 0, 0 -12" transform="rotate(180,262,310)"/><path d="M 256 328v 12h 12v -6a 6 6, 0, 0, 0, -6 -6" transform="rotate(0,262,334)"/><rect x="256" y="340" width="12" height="12" transform="rotate(0,262,346)"/><rect x="256" y="352" width="12" height="12" transform="rotate(0,262,358)"/><rect x="256" y="364" width="12" height="12" transform="rotate(0,262,370)"/><rect x="256" y="376" width="12" height="12" transform="rotate(0,262,382)"/><rect x="256" y="388" width="12" height="12" transform="rotate(0,262,394)"/><rect x="256" y="412" width="12" height="12" transform="rotate(0,262,418)"/><rect x="256" y="424" width="12" height="12" transform="rotate(0,262,430)"/><circle cx="262" cy="454" r="6" transform="rotate(0,262,454)"/><path d="M 268 40v 12h 12v -6a 6 6, 0, 0, 0, -6 -6" transform="rotate(-90,274,46)"/><path d="M 268 52v 12h 12v -6a 6 6, 0, 0, 0, -6 -6" transform="rotate(180,274,58)"/><path d="M 268 76v 12h 6a 6 6, 0, 0, 0, 0 -12" transform="rotate(180,274,82)"/><circle cx="274" cy="106" r="6" transform="rotate(0,274,106)"/><path d="M 268 136v 12h 6a 6 6, 0, 0, 0, 0 -12" transform="rotate(-90,274,142)"/><rect x="268" y="148" width="12" height="12" transform="rotate(0,274,154)"/><path d="M 268 160v 12h 12v -6a 6 6, 0, 0, 0, -6 -6" transform="rotate(180,274,166)"/><circle cx="274" cy="214" r="6" transform="rotate(0,274,214)"/><rect x="268" y="232" width="12" height="12" transform="rotate(0,274,238)"/><path d="M 268 268v 12h 6a 6 6, 0, 0, 0, 0 -12" transform="rotate(0,274,274)"/><rect x="268" y="304" width="12" height="12" transform="rotate(0,274,310)"/><path d="M 268 316v 12h 6a 6 6, 0, 0, 0, 0 -12" transform="rotate(90,274,322)"/><rect x="268" y="364" width="12" height="12" transform="rotate(0,274,370)"/><rect x="268" y="376" width="12" height="12" transform="rotate(0,274,382)"/><path d="M 268 388v 12h 12v -6a 6 6, 0, 0, 0, -6 -6" transform="rotate(90,274,394)"/><rect x="268" y="412" width="12" height="12" transform="rotate(0,274,418)"/><path d="M 268 424v 12h 12v -6a 6 6, 0, 0, 0, -6 -6" transform="rotate(90,274,430)"/><circle cx="274" cy="466" r="6" transform="rotate(0,274,466)"/><path d="M 280 28v 12h 6a 6 6, 0, 0, 0, 0 -12" transform="rotate(-90,286,34)"/><rect x="280" y="40" width="12" height="12" transform="rotate(0,286,46)"/><rect x="280" y="52" width="12" height="12" transform="rotate(0,286,58)"/><rect x="280" y="76" width="12" height="12" transform="rotate(0,286,82)"/><circle cx="286" cy="118" r="6" transform="rotate(0,286,118)"/><path d="M 280 148v 12h 12v -6a 6 6, 0, 0, 0, -6 -6" transform="rotate(0,286,154)"/><rect x="280" y="160" width="12" height="12" transform="rotate(0,286,166)"/><path d="M 280 172v 12h 6a 6 6, 0, 0, 0, 0 -12" transform="rotate(90,286,178)"/><circle cx="286" cy="202" r="6" transform="rotate(0,286,202)"/><path d="M 280 220v 12h 12v -6a 6 6, 0, 0, 0, -6 -6" transform="rotate(-90,286,226)"/><rect x="280" y="232" width="12" height="12" transform="rotate(0,286,238)"/><path d="M 280 292v 12h 6a 6 6, 0, 0, 0, 0 -12" transform="rotate(-90,286,298)"/><rect x="280" y="304" width="12" height="12" transform="rotate(0,286,310)"/><path d="M 280 328v 12h 12v -6a 6 6, 0, 0, 0, -6 -6" transform="rotate(-90,286,334)"/><rect x="280" y="340" width="12" height="12" transform="rotate(0,286,346)"/><rect x="280" y="352" width="12" height="12" transform="rotate(0,286,358)"/><path d="M 280 364v 12h 12v -6a 6 6, 0, 0, 0, -6 -6" transform="rotate(90,286,370)"/><path d="M 280 400v 12h 6a 6 6, 0, 0, 0, 0 -12" transform="rotate(-90,286,406)"/><rect x="280" y="412" width="12" height="12" transform="rotate(0,286,418)"/><path d="M 280 436v 12h 6a 6 6, 0, 0, 0, 0 -12" transform="rotate(-90,286,442)"/><path d="M 280 448v 12h 12v -6a 6 6, 0, 0, 0, -6 -6" transform="rotate(180,286,454)"/><path d="M 292 40v 12h 12v -6a 6 6, 0, 0, 0, -6 -6" transform="rotate(0,298,46)"/><path d="M 292 52v 12h 12v -6a 6 6, 0, 0, 0, -6 -6" transform="rotate(90,298,58)"/><rect x="292" y="76" width="12" height="12" transform="rotate(0,298,82)"/><rect x="292" y="88" width="12" height="12" transform="rotate(0,298,94)"/><path d="M 292 100v 12h 6a 6 6, 0, 0, 0, 0 -12" transform="rotate(90,298,106)"/><path d="M 292 124v 12h 12v -6a 6 6, 0, 0, 0, -6 -6" transform="rotate(-90,298,130)"/><path d="M 292 136v 12h 12v -6a 6 6, 0, 0, 0, -6 -6" transform="rotate(180,298,142)"/><path d="M 292 160v 12h 6a 6 6, 0, 0, 0, 0 -12" transform="rotate(0,298,166)"/><path d="M 292 208v 12h 12v -6a 6 6, 0, 0, 0, -6 -6" transform="rotate(-90,298,214)"/><rect x="292" y="220" width="12" height="12" transform="rotate(0,298,226)"/><rect x="292" y="232" width="12" height="12" transform="rotate(0,298,238)"/><rect x="292" y="244" width="12" height="12" transform="rotate(0,298,250)"/><rect x="292" y="256" width="12" height="12" transform="rotate(0,298,262)"/><rect x="292" y="268" width="12" height="12" transform="rotate(0,298,274)"/><path d="M 292 280v 12h 6a 6 6, 0, 0, 0, 0 -12" transform="rotate(90,298,286)"/><rect x="292" y="304" width="12" height="12" transform="rotate(0,298,310)"/><rect x="292" y="328" width="12" height="12" transform="rotate(0,298,334)"/><rect x="292" y="352" width="12" height="12" transform="rotate(0,298,358)"/><path d="M 292 376v 12h 6a 6 6, 0, 0, 0, 0 -12" transform="rotate(-90,298,382)"/><path d="M 292 388v 12h 6a 6 6, 0, 0, 0, 0 -12" transform="rotate(90,298,394)"/><path d="M 292 412v 12h 12v -6a 6 6, 0, 0, 0, -6 -6" transform="rotate(0,298,418)"/><path d="M 292 424v 12h 12v -6a 6 6, 0, 0, 0, -6 -6" transform="rotate(180,298,430)"/><rect x="292" y="448" width="12" height="12" transform="rotate(0,298,454)"/><path d="M 292 460v 12h 6a 6 6, 0, 0, 0, 0 -12" transform="rotate(90,298,466)"/><path d="M 304 64v 12h 12v -6a 6 6, 0, 0, 0, -6 -6" transform="rotate(-90,310,70)"/><path d="M 304 76v 12h 12v -6a 6 6, 0, 0, 0, -6 -6" transform="rotate(90,310,82)"/><path d="M 304 112v 12h 6a 6 6, 0, 0, 0, 0 -12" transform="rotate(-90,310,118)"/><rect x="304" y="124" width="12" height="12" transform="rotate(0,310,130)"/><rect x="304" y="136" width="12" height="12" transform="rotate(0,310,142)"/><path d="M 304 148v 12h 6a 6 6, 0, 0, 0, 0 -12" transform="rotate(90,310,154)"/><path d="M 304 172v 12h 12v -6a 6 6, 0, 0, 0, -6 -6" transform="rotate(-90,310,178)"/><rect x="304" y="184" width="12" height="12" transform="rotate(0,310,190)"/><rect x="304" y="196" width="12" height="12" transform="rotate(0,310,202)"/><path d="M 304 208v 12h 12v -6a 6 6, 0, 0, 0, -6 -6" transform="rotate(90,310,214)"/><path d="M 304 292v 12h 6a 6 6, 0, 0, 0, 0 -12" transform="rotate(-90,310,298)"/><rect x="304" y="304" width="12" height="12" transform="rotate(0,310,310)"/><rect x="304" y="316" width="12" height="12" transform="rotate(0,310,322)"/><rect x="304" y="328" width="12" height="12" transform="rotate(0,310,334)"/><path d="M 304 352v 12h 12v -6a 6 6, 0, 0, 0, -6 -6" transform="rotate(0,310,358)"/><path d="M 304 364v 12h 12v -6a 6 6, 0, 0, 0, -6 -6" transform="rotate(180,310,370)"/><circle cx="310" cy="406" r="6" transform="rotate(0,310,406)"/><rect x="304" y="424" width="12" height="12" transform="rotate(0,310,430)"/><rect x="304" y="436" width="12" height="12" transform="rotate(0,310,442)"/><path d="M 304 448v 12h 12v -6a 6 6, 0, 0, 0, -6 -6" transform="rotate(90,310,454)"/><path d="M 316 28v 12h 6a 6 6, 0, 0, 0, 0 -12" transform="rotate(180,322,34)"/><path d="M 316 52v 12h 6a 6 6, 0, 0, 0, 0 -12" transform="rotate(-90,322,58)"/><path d="M 316 64v 12h 12v -6a 6 6, 0, 0, 0, -6 -6" transform="rotate(90,322,70)"/><path d="M 316 88v 12h 6a 6 6, 0, 0, 0, 0 -12" transform="rotate(-90,322,94)"/><path d="M 316 100v 12h 6a 6 6, 0, 0, 0, 0 -12" transform="rotate(90,322,106)"/><path d="M 316 172v 12h 6a 6 6, 0, 0, 0, 0 -12" transform="rotate(0,322,178)"/><path d="M 316 220v 12h 6a 6 6, 0, 0, 0, 0 -12" transform="rotate(180,322,226)"/><circle cx="322" cy="250" r="6" transform="rotate(0,322,250)"/><rect x="316" y="316" width="12" height="12" transform="rotate(0,322,322)"/><rect x="316" y="328" width="12" height="12" transform="rotate(0,322,334)"/><path d="M 316 364v 12h 12v -6a 6 6, 0, 0, 0, -6 -6" transform="rotate(0,322,370)"/><rect x="316" y="376" width="12" height="12" transform="rotate(0,322,382)"/><path d="M 316 388v 12h 6a 6 6, 0, 0, 0, 0 -12" transform="rotate(90,322,394)"/><path d="M 316 424v 12h 6a 6 6, 0, 0, 0, 0 -12" transform="rotate(0,322,430)"/><circle cx="322" cy="466" r="6" transform="rotate(0,322,466)"/><rect x="328" y="28" width="12" height="12" transform="rotate(0,334,34)"/><circle cx="334" cy="118" r="6" transform="rotate(0,334,118)"/><path d="M 328 136v 12h 6a 6 6, 0, 0, 0, 0 -12" transform="rotate(-90,334,142)"/><rect x="328" y="148" width="12" height="12" transform="rotate(0,334,154)"/><path d="M 328 160v 12h 12v -6a 6 6, 0, 0, 0, -6 -6" transform="rotate(180,334,166)"/><path d="M 328 184v 12h 6a 6 6, 0, 0, 0, 0 -12" transform="rotate(180,334,190)"/><path d="M 328 208v 12h 12v -6a 6 6, 0, 0, 0, -6 -6" transform="rotate(-90,334,214)"/><rect x="328" y="220" width="12" height="12" transform="rotate(0,334,226)"/><path d="M 328 232v 12h 12v -6a 6 6, 0, 0, 0, -6 -6" transform="rotate(180,334,238)"/><circle cx="334" cy="274" r="6" transform="rotate(0,334,274)"/><path d="M 328 292v 12h 6a 6 6, 0, 0, 0, 0 -12" transform="rotate(-90,334,298)"/><rect x="328" y="304" width="12" height="12" transform="rotate(0,334,310)"/><rect x="328" y="316" width="12" height="12" transform="rotate(0,334,322)"/><rect x="328" y="328" width="12" height="12" transform="rotate(0,334,334)"/><path d="M 328 340v 12h 6a 6 6, 0, 0, 0, 0 -12" transform="rotate(90,334,346)"/><path d="M 328 376v 12h 6a 6 6, 0, 0, 0, 0 -12" transform="rotate(0,334,382)"/><path d="M 328 400v 12h 12v -6a 6 6, 0, 0, 0, -6 -6" transform="rotate(-90,334,406)"/><path d="M 328 412v 12h 6a 6 6, 0, 0, 0, 0 -12" transform="rotate(90,334,418)"/><rect x="340" y="28" width="12" height="12" transform="rotate(0,346,34)"/><rect x="340" y="40" width="12" height="12" transform="rotate(0,346,46)"/><path d="M 340 52v 12h 12v -6a 6 6, 0, 0, 0, -6 -6" transform="rotate(180,346,58)"/><circle cx="346" cy="106" r="6" transform="rotate(0,346,106)"/><circle cx="346" cy="130" r="6" transform="rotate(0,346,130)"/><rect x="340" y="160" width="12" height="12" transform="rotate(0,346,166)"/><rect x="340" y="172" width="12" height="12" transform="rotate(0,346,178)"/><rect x="340" y="184" width="12" height="12" transform="rotate(0,346,190)"/><rect x="340" y="196" width="12" height="12" transform="rotate(0,346,202)"/><path d="M 340 208v 12h 12v -6a 6 6, 0, 0, 0, -6 -6" transform="rotate(90,346,214)"/><rect x="340" y="232" width="12" height="12" transform="rotate(0,346,238)"/><path d="M 340 256v 12h 6a 6 6, 0, 0, 0, 0 -12" transform="rotate(180,346,262)"/><circle cx="346" cy="286" r="6" transform="rotate(0,346,286)"/><path d="M 340 328v 12h 6a 6 6, 0, 0, 0, 0 -12" transform="rotate(0,346,334)"/><path d="M 340 352v 12h 6a 6 6, 0, 0, 0, 0 -12" transform="rotate(180,346,358)"/><path d="M 340 388v 12h 6a 6 6, 0, 0, 0, 0 -12" transform="rotate(-90,346,394)"/><path d="M 340 400v 12h 12v -6a 6 6, 0, 0, 0, -6 -6" transform="rotate(90,346,406)"/><path d="M 340 436v 12h 6a 6 6, 0, 0, 0, 0 -12" transform="rotate(180,346,442)"/><path d="M 340 460v 12h 6a 6 6, 0, 0, 0, 0 -12" transform="rotate(180,346,466)"/><rect x="352" y="28" width="12" height="12" transform="rotate(0,358,34)"/><path d="M 352 52v 12h 12v -6a 6 6, 0, 0, 0, -6 -6" transform="rotate(0,358,58)"/><path d="M 352 64v 12h 12v -6a 6 6, 0, 0, 0, -6 -6" transform="rotate(180,358,70)"/><circle cx="358" cy="94" r="6" transform="rotate(0,358,94)"/><path d="M 352 148v 12h 6a 6 6, 0, 0, 0, 0 -12" transform="rotate(-90,358,154)"/><rect x="352" y="160" width="12" height="12" transform="rotate(0,358,166)"/><path d="M 352 172v 12h 12v -6a 6 6, 0, 0, 0, -6 -6" transform="rotate(90,358,178)"/><path d="M 352 196v 12h 6a 6 6, 0, 0, 0, 0 -12" transform="rotate(0,358,202)"/><path d="M 352 232v 12h 12v -6a 6 6, 0, 0, 0, -6 -6" transform="rotate(0,358,238)"/><rect x="352" y="244" width="12" height="12" transform="rotate(0,358,250)"/><rect x="352" y="256" width="12" height="12" transform="rotate(0,358,262)"/><path d="M 352 268v 12h 12v -6a 6 6, 0, 0, 0, -6 -6" transform="rotate(180,358,274)"/><path d="M 352 292v 12h 6a 6 6, 0, 0, 0, 0 -12" transform="rotate(-90,358,298)"/><rect x="352" y="304" width="12" height="12" transform="rotate(0,358,310)"/><path d="M 352 316v 12h 6a 6 6, 0, 0, 0, 0 -12" transform="rotate(90,358,322)"/><rect x="352" y="352" width="12" height="12" transform="rotate(0,358,358)"/><rect x="352" y="364" width="12" height="12" transform="rotate(0,358,370)"/><path d="M 352 376v 12h 12v -6a 6 6, 0, 0, 0, -6 -6" transform="rotate(180,358,382)"/><rect x="352" y="436" width="12" height="12" transform="rotate(0,358,442)"/><rect x="352" y="460" width="12" height="12" transform="rotate(0,358,466)"/><path d="M 364 28v 12h 6a 6 6, 0, 0, 0, 0 -12" transform="rotate(0,370,34)"/><path d="M 364 64v 12h 12v -6a 6 6, 0, 0, 0, -6 -6" transform="rotate(0,370,70)"/><path d="M 364 76v 12h 6a 6 6, 0, 0, 0, 0 -12" transform="rotate(90,370,82)"/><path d="M 364 100v 12h 6a 6 6, 0, 0, 0, 0 -12" transform="rotate(-90,370,106)"/><rect x="364" y="112" width="12" height="12" transform="rotate(0,370,118)"/><path d="M 364 124v 12h 12v -6a 6 6, 0, 0, 0, -6 -6" transform="rotate(180,370,130)"/><path d="M 364 184v 12h 6a 6 6, 0, 0, 0, 0 -12" transform="rotate(180,370,190)"/><path d="M 364 220v 12h 6a 6 6, 0, 0, 0, 0 -12" transform="rotate(180,370,226)"/><path d="M 364 268v 12h 6a 6 6, 0, 0, 0, 0 -12" transform="rotate(0,370,274)"/><path d="M 364 304v 12h 6a 6 6, 0, 0, 0, 0 -12" transform="rotate(0,370,310)"/><circle cx="370" cy="334" r="6" transform="rotate(0,370,334)"/><rect x="364" y="352" width="12" height="12" transform="rotate(0,370,358)"/><rect x="364" y="364" width="12" height="12" transform="rotate(0,370,370)"/><rect x="364" y="376" width="12" height="12" transform="rotate(0,370,382)"/><rect x="364" y="388" width="12" height="12" transform="rotate(0,370,394)"/><rect x="364" y="400" width="12" height="12" transform="rotate(0,370,406)"/><path d="M 364 412v 12h 12v -6a 6 6, 0, 0, 0, -6 -6" transform="rotate(180,370,418)"/><rect x="364" y="436" width="12" height="12" transform="rotate(0,370,442)"/><rect x="364" y="448" width="12" height="12" transform="rotate(0,370,454)"/><path d="M 364 460v 12h 12v -6a 6 6, 0, 0, 0, -6 -6" transform="rotate(90,370,466)"/><path d="M 376 124v 12h 6a 6 6, 0, 0, 0, 0 -12" transform="rotate(0,382,130)"/><path d="M 376 148v 12h 6a 6 6, 0, 0, 0, 0 -12" transform="rotate(-90,382,154)"/><path d="M 376 160v 12h 12v -6a 6 6, 0, 0, 0, -6 -6" transform="rotate(180,382,166)"/><rect x="376" y="184" width="12" height="12" transform="rotate(0,382,190)"/><path d="M 376 208v 12h 12v -6a 6 6, 0, 0, 0, -6 -6" transform="rotate(-90,382,214)"/><rect x="376" y="220" width="12" height="12" transform="rotate(0,382,226)"/><rect x="376" y="232" width="12" height="12" transform="rotate(0,382,238)"/><rect x="376" y="244" width="12" height="12" transform="rotate(0,382,250)"/><path d="M 376 256v 12h 6a 6 6, 0, 0, 0, 0 -12" transform="rotate(90,382,262)"/><path d="M 376 340v 12h 6a 6 6, 0, 0, 0, 0 -12" transform="rotate(-90,382,346)"/><rect x="376" y="352" width="12" height="12" transform="rotate(0,382,358)"/><rect x="376" y="364" width="12" height="12" transform="rotate(0,382,370)"/><rect x="376" y="412" width="12" height="12" transform="rotate(0,382,418)"/><rect x="376" y="424" width="12" height="12" transform="rotate(0,382,430)"/><rect x="376" y="436" width="12" height="12" transform="rotate(0,382,442)"/><path d="M 388 136v 12h 6a 6 6, 0, 0, 0, 0 -12" transform="rotate(180,394,142)"/><rect x="388" y="160" width="12" height="12" transform="rotate(0,394,166)"/><path d="M 388 184v 12h 12v -6a 6 6, 0, 0, 0, -6 -6" transform="rotate(0,394,190)"/><rect x="388" y="196" width="12" height="12" transform="rotate(0,394,202)"/><rect x="388" y="208" width="12" height="12" transform="rotate(0,394,214)"/><path d="M 388 244v 12h 6a 6 6, 0, 0, 0, 0 -12" transform="rotate(0,394,250)"/><path d="M 388 268v 12h 12v -6a 6 6, 0, 0, 0, -6 -6" transform="rotate(-90,394,274)"/><rect x="388" y="280" width="12" height="12" transform="rotate(0,394,286)"/><rect x="388" y="292" width="12" height="12" transform="rotate(0,394,298)"/><rect x="388" y="304" width="12" height="12" transform="rotate(0,394,310)"/><rect x="388" y="316" width="12" height="12" transform="rotate(0,394,322)"/><path d="M 388 328v 12h 12v -6a 6 6, 0, 0, 0, -6 -6" transform="rotate(180,394,334)"/><rect x="388" y="364" width="12" height="12" transform="rotate(0,394,370)"/><circle cx="394" cy="394" r="6" transform="rotate(0,394,394)"/><rect x="388" y="412" width="12" height="12" transform="rotate(0,394,418)"/><rect x="388" y="424" width="12" height="12" transform="rotate(0,394,430)"/><path d="M 388 436v 12h 12v -6a 6 6, 0, 0, 0, -6 -6" transform="rotate(90,394,442)"/><path d="M 388 460v 12h 6a 6 6, 0, 0, 0, 0 -12" transform="rotate(180,394,466)"/><path d="M 400 124v 12h 12v -6a 6 6, 0, 0, 0, -6 -6" transform="rotate(-90,406,130)"/><rect x="400" y="136" width="12" height="12" transform="rotate(0,406,142)"/><rect x="400" y="148" width="12" height="12" transform="rotate(0,406,154)"/><rect x="400" y="160" width="12" height="12" transform="rotate(0,406,166)"/><path d="M 400 208v 12h 6a 6 6, 0, 0, 0, 0 -12" transform="rotate(0,406,214)"/><path d="M 400 268v 12h 6a 6 6, 0, 0, 0, 0 -12" transform="rotate(0,406,274)"/><rect x="400" y="292" width="12" height="12" transform="rotate(0,406,298)"/><path d="M 400 316v 12h 12v -6a 6 6, 0, 0, 0, -6 -6" transform="rotate(0,406,322)"/><path d="M 400 328v 12h 12v -6a 6 6, 0, 0, 0, -6 -6" transform="rotate(90,406,334)"/><path d="M 400 352v 12h 12v -6a 6 6, 0, 0, 0, -6 -6" transform="rotate(-90,406,358)"/><rect x="400" y="364" width="12" height="12" transform="rotate(0,406,370)"/><rect x="400" y="412" width="12" height="12" transform="rotate(0,406,418)"/><path d="M 400 424v 12h 12v -6a 6 6, 0, 0, 0, -6 -6" transform="rotate(90,406,430)"/><path d="M 400 448v 12h 6a 6 6, 0, 0, 0, 0 -12" transform="rotate(-90,406,454)"/><rect x="400" y="460" width="12" height="12" transform="rotate(0,406,466)"/><rect x="412" y="124" width="12" height="12" transform="rotate(0,418,130)"/><rect x="412" y="136" width="12" height="12" transform="rotate(0,418,142)"/><rect x="412" y="148" width="12" height="12" transform="rotate(0,418,154)"/><rect x="412" y="160" width="12" height="12" transform="rotate(0,418,166)"/><circle cx="418" cy="190" r="6" transform="rotate(0,418,190)"/><path d="M 412 232v 12h 6a 6 6, 0, 0, 0, 0 -12" transform="rotate(180,418,238)"/><path d="M 412 280v 12h 6a 6 6, 0, 0, 0, 0 -12" transform="rotate(-90,418,286)"/><path d="M 412 292v 12h 12v -6a 6 6, 0, 0, 0, -6 -6" transform="rotate(90,418,298)"/><path d="M 412 340v 12h 6a 6 6, 0, 0, 0, 0 -12" transform="rotate(-90,418,346)"/><rect x="412" y="352" width="12" height="12" transform="rotate(0,418,358)"/><rect x="412" y="364" width="12" height="12" transform="rotate(0,418,370)"/><rect x="412" y="376" width="12" height="12" transform="rotate(0,418,382)"/><rect x="412" y="388" width="12" height="12" transform="rotate(0,418,394)"/><rect x="412" y="400" width="12" height="12" transform="rotate(0,418,406)"/><path d="M 412 412v 12h 12v -6a 6 6, 0, 0, 0, -6 -6" transform="rotate(90,418,418)"/><path d="M 412 460v 12h 6a 6 6, 0, 0, 0, 0 -12" transform="rotate(0,418,466)"/><path d="M 424 124v 12h 12v -6a 6 6, 0, 0, 0, -6 -6" transform="rotate(0,430,130)"/><rect x="424" y="136" width="12" height="12" transform="rotate(0,430,142)"/><path d="M 424 160v 12h 6a 6 6, 0, 0, 0, 0 -12" transform="rotate(0,430,166)"/><path d="M 424 196v 12h 6a 6 6, 0, 0, 0, 0 -12" transform="rotate(-90,430,202)"/><rect x="424" y="208" width="12" height="12" transform="rotate(0,430,214)"/><rect x="424" y="220" width="12" height="12" transform="rotate(0,430,226)"/><rect x="424" y="232" width="12" height="12" transform="rotate(0,430,238)"/><path d="M 424 244v 12h 12v -6a 6 6, 0, 0, 0, -6 -6" transform="rotate(180,430,250)"/><path d="M 424 316v 12h 6a 6 6, 0, 0, 0, 0 -12" transform="rotate(-90,430,322)"/><path d="M 424 328v 12h 12v -6a 6 6, 0, 0, 0, -6 -6" transform="rotate(180,430,334)"/><rect x="424" y="364" width="12" height="12" transform="rotate(0,430,370)"/><path d="M 424 388v 12h 6a 6 6, 0, 0, 0, 0 -12" transform="rotate(0,430,394)"/><path d="M 424 424v 12h 6a 6 6, 0, 0, 0, 0 -12" transform="rotate(180,430,430)"/><path d="M 424 448v 12h 6a 6 6, 0, 0, 0, 0 -12" transform="rotate(180,430,454)"/><path d="M 436 136v 12h 6a 6 6, 0, 0, 0, 0 -12" transform="rotate(0,442,142)"/><path d="M 436 208v 12h 6a 6 6, 0, 0, 0, 0 -12" transform="rotate(0,442,214)"/><path d="M 436 244v 12h 12v -6a 6 6, 0, 0, 0, -6 -6" transform="rotate(0,442,250)"/><rect x="436" y="256" width="12" height="12" transform="rotate(0,442,262)"/><path d="M 436 268v 12h 12v -6a 6 6, 0, 0, 0, -6 -6" transform="rotate(180,442,274)"/><path d="M 436 292v 12h 6a 6 6, 0, 0, 0, 0 -12" transform="rotate(-90,442,298)"/><path d="M 436 304v 12h 12v -6a 6 6, 0, 0, 0, -6 -6" transform="rotate(180,442,310)"/><path d="M 436 328v 12h 6a 6 6, 0, 0, 0, 0 -12" transform="rotate(0,442,334)"/><path d="M 436 364v 12h 6a 6 6, 0, 0, 0, 0 -12" transform="rotate(0,442,370)"/><path d="M 436 400v 12h 12v -6a 6 6, 0, 0, 0, -6 -6" transform="rotate(-90,442,406)"/><rect x="436" y="412" width="12" height="12" transform="rotate(0,442,418)"/><rect x="436" y="424" width="12" height="12" transform="rotate(0,442,430)"/><rect x="436" y="448" width="12" height="12" transform="rotate(0,442,454)"/><path d="M 436 460v 12h 12v -6a 6 6, 0, 0, 0, -6 -6" transform="rotate(180,442,466)"/><circle cx="454" cy="130" r="6" transform="rotate(0,454,130)"/><path d="M 448 148v 12h 12v -6a 6 6, 0, 0, 0, -6 -6" transform="rotate(-90,454,154)"/><path d="M 448 160v 12h 12v -6a 6 6, 0, 0, 0, -6 -6" transform="rotate(180,454,166)"/><circle cx="454" cy="202" r="6" transform="rotate(0,454,202)"/><path d="M 448 220v 12h 6a 6 6, 0, 0, 0, 0 -12" transform="rotate(180,454,226)"/><path d="M 448 256v 12h 12v -6a 6 6, 0, 0, 0, -6 -6" transform="rotate(0,454,262)"/><path d="M 448 268v 12h 12v -6a 6 6, 0, 0, 0, -6 -6" transform="rotate(90,454,274)"/><rect x="448" y="304" width="12" height="12" transform="rotate(0,454,310)"/><path d="M 448 316v 12h 12v -6a 6 6, 0, 0, 0, -6 -6" transform="rotate(180,454,322)"/><circle cx="454" cy="346" r="6" transform="rotate(0,454,346)"/><path d="M 448 376v 12h 6a 6 6, 0, 0, 0, 0 -12" transform="rotate(-90,454,382)"/><rect x="448" y="388" width="12" height="12" transform="rotate(0,454,394)"/><rect x="448" y="400" width="12" height="12" transform="rotate(0,454,406)"/><rect x="448" y="424" width="12" height="12" transform="rotate(0,454,430)"/><rect x="448" y="436" width="12" height="12" transform="rotate(0,454,442)"/><rect x="448" y="448" width="12" height="12" transform="rotate(0,454,454)"/><rect x="448" y="460" width="12" height="12" transform="rotate(0,454,466)"/><path d="M 460 148v 12h 12v -6a 6 6, 0, 0, 0, -6 -6" transform="rotate(0,466,154)"/><path d="M 460 160v 12h 12v -6a 6 6, 0, 0, 0, -6 -6" transform="rotate(90,466,166)"/><path d="M 460 208v 12h 6a 6 6, 0, 0, 0, 0 -12" transform="rotate(-90,466,214)"/><path d="M 460 220v 12h 12v -6a 6 6, 0, 0, 0, -6 -6" transform="rotate(90,466,226)"/><circle cx="466" cy="250" r="6" transform="rotate(0,466,250)"/><path d="M 460 292v 12h 6a 6 6, 0, 0, 0, 0 -12" transform="rotate(-90,466,298)"/><rect x="460" y="304" width="12" height="12" transform="rotate(0,466,310)"/><path d="M 460 316v 12h 12v -6a 6 6, 0, 0, 0, -6 -6" transform="rotate(90,466,322)"/><circle cx="466" cy="370" r="6" transform="rotate(0,466,370)"/><path d="M 460 400v 12h 12v -6a 6 6, 0, 0, 0, -6 -6" transform="rotate(0,466,406)"/><rect x="460" y="412" width="12" height="12" transform="rotate(0,466,418)"/><path d="M 460 424v 12h 12v -6a 6 6, 0, 0, 0, -6 -6" transform="rotate(90,466,430)"/><path d="M 460 460v 12h 6a 6 6, 0, 0, 0, 0 -12" transform="rotate(0,466,466)"/><path clip-rule="evenodd" d="M 28 58v 24a 30 30, 0, 0, 0, 30 30h 24a 30 30, 0, 0, 0, 30 -30v -24a 30 30, 0, 0, 0, -30 -30h -24a 30 30, 0, 0, 0, -30 30M 58 40h 24a 18 18, 0, 0, 1, 18 18v 24a 18 18, 0, 0, 1, -18 18h -24a 18 18, 0, 0, 1, -18 -18v -24a 18 18, 0, 0, 1, 18 -18" transform="rotate(0,70,70)"/><circle cx="70" cy="70" r="18" transform="rotate(0,70,70)"/><path clip-rule="evenodd" d="M 388 58v 24a 30 30, 0, 0, 0, 30 30h 24a 30 30, 0, 0, 0, 30 -30v -24a 30 30, 0, 0, 0, -30 -30h -24a 30 30, 0, 0, 0, -30 30M 418 40h 24a 18 18, 0, 0, 1, 18 18v 24a 18 18, 0, 0, 1, -18 18h -24a 18 18, 0, 0, 1, -18 -18v -24a 18 18, 0, 0, 1, 18 -18" transform="rotate(90,430,70)"/><circle cx="430" cy="70" r="18" transform="rotate(90,430,70)"/><path clip-rule="evenodd" d="M 28 418v 24a 30 30, 0, 0, 0, 30 30h 24a 30 30, 0, 0, 0, 30 -30v -24a 30 30, 0, 0, 0, -30 -30h -24a 30 30, 0, 0, 0, -30 30M 58 400h 24a 18 18, 0, 0, 1, 18 18v 24a 18 18, 0, 0, 1, -18 18h -24a 18 18, 0, 0, 1, -18 -18v -24a 18 18, 0, 0, 1, 18 -18" transform="rotate(-90,70,430)"/><circle cx="70" cy="430" r="18" transform="rotate(-90,70,430)"/></clipPath></defs><rect x="0" y="0" height="500" width="500" clip-path="url('#clip-path-background-color')" fill="rgba(0,0,0,0)"/><rect x="0" y="0" height="500" width="500" clip-path="url('#clip-path-dot-color')" fill="#fff"/></svg>
